<?xml version="1.0" encoding="utf-8"?>
<!-- Generator: Adobe Illustrator 24.3.0, SVG Export Plug-In . SVG Version: 6.00 Build 0)  -->
<svg version="1.1" id="Ebene_1" xmlns="http://www.w3.org/2000/svg" xmlns:xlink="http://www.w3.org/1999/xlink" x="0px" y="0px"
	 viewBox="0 0 841.9 595.3" style="enable-background:new 0 0 841.9 595.3;" xml:space="preserve">
<style type="text/css">
	.st0{fill:url(#SVGID_1_);}
	.st1{fill:#FFFFFF;}
</style>
<linearGradient id="SVGID_1_" gradientUnits="userSpaceOnUse" x1="20.2464" y1="529.1545" x2="814.2465" y2="65.1545">
	<stop  offset="0" style="stop-color:#5CFFFF"/>
	<stop  offset="1" style="stop-color:#4813FF"/>
</linearGradient>
<rect x="-14" y="-16" class="st0" width="875" height="619"/>
<path class="st1" d="M458.9,328.3c0-27.5,13.5-57.9,36-73.9c2.1-1.5,4.4-2.9,6.7-4.3c12.9-7.5,27.6-11.4,42.5-11.4
	c44.2,0,81.5,34.5,84.9,78.5l0.5,4.2l4.2-0.1c46.2,0,85.1,40.5,85.1,88.4c0,47.9-39,88.4-85.2,88.4c-19.4,0-36.1-5.5-49.8-17.6
	l-1.2-0.4h-4.4l-1.6,0.6c-8.4,6.5-26,19.8-53.8,19.8c-20.5,0-34.6-6.7-52-24.1l-3-3.1l-3.1,2.9c-15.1,14.4-34.7,22-56.6,22
	c-47,0-85.2-38-85.2-84.7c0-13.1,3-25.7,8.9-37.6c1-2.1,2.2-4.2,3.4-6.3c15.6-25.8,42.5-41.3,72.6-41.3c7.3,0,16.5,1,21.2,2.8v-9.1
	c-4.7-1.6-13.9-2.5-21.2-2.5c-33.1,0-63,17-80.2,45.5c-1.4,2.3-2.6,4.6-3.7,6.9c-6.5,13.1-9.7,27.1-9.7,41.5
	c0,51.5,42.2,93.5,94,93.5c22.8,0,43.3-7.4,59.6-21.6c17.8,16.9,33.6,23.6,55.2,23.6c29.1,0,47.8-13.2,57.5-20.7
	c14.7,12.2,33.2,18.6,53.4,18.6c50.9,0,93.9-44.5,93.9-97.2c0-51.4-41-95.1-90.3-97.1c-5.6-46.6-45.8-82.6-93.2-82.6
	c-16.4,0-32.6,4.4-46.8,12.6c-2.6,1.5-5,3.1-7.4,4.7c-24.9,17.6-39.7,50.7-39.7,81c0,0.1,0,0,0,0.1"/>
<path class="st1" d="M460.8,177.1l23.6-23.6c1.6-1.6,1.6-4.3,0-5.9c-1.6-1.6-4.3-1.6-5.9,0l-23.6,23.6c-1.6,1.6-1.6,4.3,0,5.9
	C456.5,178.8,459.1,178.8,460.8,177.1"/>
<path class="st1" d="M181.3,286.5l-54.6,1.2c-2.3,0.1-4.1,2-4,4.3c0,2.3,2,4.2,4.3,4.1l54.6-1.2c2.3-0.1,4.1-2,4-4.2
	C185.6,288.2,183.7,286.4,181.3,286.5"/>
<path class="st1" d="M343.6,130.9c2.3,0,4.7-1.9,4.7-4.2V72.2c0-2.3-2.4-4.2-4.7-4.2c-2.3,0-4.7,1.9-4.7,4.2v54.6
	C338.8,129.1,341.3,130.9,343.6,130.9"/>
<path class="st1" d="M231.8,400.2c-1.6-1.6-4.3-1.6-5.9,0l-23.6,23.6c-1.6,1.6-1.6,4.3,0,5.9c1.6,1.6,4.3,1.6,5.9,0l23.6-23.6
	C233.5,404.4,233.5,401.8,231.8,400.2"/>
<path class="st1" d="M225.9,177.1c1.6,1.6,4.3,1.6,5.9,0c1.6-1.6,1.6-4.3,0-5.9l-23.6-23.6c-1.6-1.6-4.3-1.6-5.9,0
	c-1.6,1.6-1.6,4.3,0,5.9L225.9,177.1z"/>
<path class="st1" d="M425.3,206.7c-43.3-43.3-112.5-45-157.9-5.4l5.1,5.1c20.3-17.6,45.6-26.4,70.9-26.4c27.8,0,55.7,10.6,76.8,31.8
	c7.7,7.7,14,16.3,18.9,25.4l5.1-5.6C439.1,222.7,432.8,214.3,425.3,206.7"/>
<path class="st1" d="M266.5,365.5c-40.4-40.4-42.1-104.8-5.6-147.5l-5.1-5.1c-39.4,45.5-37.5,114.5,5.6,157.7
	c10.7,10.7,22.9,18.8,36,24.4l5-5.6C289.4,384.1,277.1,376.1,266.5,365.5"/>
</svg>
